
                                    $$TheAaax9$$

Body Of Lies [Dual-Audio][Hindi-English]by_TheAaax9

screen shots :-
 
http://shareimage.org/images/80vnvalr1yazrjao50zl.png
 
http://shareimage.org/images/3s5e0wnpjsvfjhee5w07.png
 
http://shareimage.org/images/wtm4ogws24zv96tqoz74.png
 
http://shareimage.org/images/ijaubdy7l2zboqkqk51u.png
 
http://shareimage.org/images/eqt6emurgohl98fthsf6.png
 
http://shareimage.org/images/wve0u1rmjlo7y2eg8rcu.png
 
http://shareimage.org/images/yjfyznpnkdpcbu45us0.png

General
Complete name                    : Body Of Lies [Dual-Audio][Hindi-English]by_TheAaax9.mkv
Format                           : Matroska
File size                        : 693 MiB
Duration                         : 2h 2mn
Overall bit rate                 : 788 Kbps
Movie name                       : Body of Lies present by TheAaax9

Video
ID                               : 1
Format                           : MPEG-4 Visual
Codec ID                         : XVID
Codec ID/Hint                    : XviD
Duration                         : 2h 2mn
Bit rate                         : 644 Kbps
Width                            : 720 pixels
Height                           : 304 pixels
Display aspect ratio             : 16:9
Original display aspect ratio    : 2.35:1
Frame rate                       : 25.000 fps
Resolution                       : 24 bits
Colorimetry                      : 4:2:0
Scan type                        : Progressive
Bits/(Pixel*Frame)               : 0.118
Stream size                      : 567 MiB (82%)
Title                            : TheAaax9

Audio #1
ID                               : 2
Codec ID                         : A_MPEG/L3
Codec ID/Hint                    : MP3
Duration                         : 2h 2mn
Bit rate mode                    : Constant
Bit rate                         : 64.0 Kbps
Channel(s)                       : 2 channels
Sampling rate                    : 22.05 KHz
Resolution                       : 16 bits
Stream size                      : 56.3 MiB (8%)
Title                            : TheAaax9
Language                         : Hindi

Audio #2
ID                               : 3
Codec ID                         : A_MPEG/L3
Codec ID/Hint                    : MP3
Duration                         : 2h 2mn
Bit rate mode                    : Constant
Bit rate                         : 64.0 Kbps
Channel(s)                       : 2 channels
Sampling rate                    : 22.05 KHz
Resolution                       : 16 bits
Stream size                      : 56.3 MiB (8%)
Title                            : TheAaax9

                                    $$TheAaax9$$